# xmcd
# 
# Track frame offsets:
#     150
#     21235
#     34092
#     51972
#     65560
#     83817
#     101600
#     122120
#     141745
#     157715
# 
# Disc length: 2327
# 
# Revision: 5
# Processed by: cddbd v1.5.2PL0 Copyright (c) Steve Scherf et al.
# Submitted via: fre:ac v1.0.31
# 
DISCID=8709150a
DTITLE=Gloria Estefan - Let It Loose
DYEAR=1987
DGENRE=Rock/Pop
TTITLE0=Betcha Say That
TTITLE1=Let It Loose
TTITLE2=Can't Stay Away From You
TTITLE3=Give It Up
TTITLE4=Surrender
TTITLE5=Rhythm Is Gonna Get You
TTITLE6=Love Toy
TTITLE7=I Want You So Bad
TTITLE8=1-2-3
TTITLE9=Anything For You
EXTD=YEAR: 1987 ID3G: 13
EXTT0=
EXTT1=
EXTT2=
EXTT3=
EXTT4=
EXTT5=
EXTT6=
EXTT7=
EXTT8=
EXTT9=
PLAYORDER=
